<?xml version="1.0" encoding="UTF-8" standalone="no"?>
<!DOCTYPE svg PUBLIC "-//W3C//DTD SVG 1.1//EN"
 "http://www.w3.org/Graphics/SVG/1.1/DTD/svg11.dtd">
<!-- Generated by graphviz version 14.0.4 (20251115.1723)
 -->
<!-- Title: RenderCommand Pages: 1 -->
<svg width="174pt" height="100pt"
 viewBox="0.00 0.00 174.00 100.00" xmlns="http://www.w3.org/2000/svg" xmlns:xlink="http://www.w3.org/1999/xlink">
<g id="graph0" class="graph" transform="scale(1 1) rotate(0) translate(4 95.75)">
<title>RenderCommand</title>
<!-- Node1 -->
<g id="Node000001" class="node">
<title>Node1</title>
<g id="a_Node000001"><a xlink:title=" ">
<polygon fill="#999999" stroke="#666666" points="112.5,-19.25 20,-19.25 20,0 112.5,0 112.5,-19.25"/>
<text xml:space="preserve" text-anchor="middle" x="66.25" y="-5.75" font-family="Helvetica,sans-Serif" font-size="10.00">RenderCommand</text>
</a>
</g>
</g>
<!-- Node2 -->
<g id="Node000002" class="node">
<title>Node2</title>
<g id="a_Node000002"><a xlink:href="struct_material.html" target="_top" xlink:title=" ">
<polygon fill="white" stroke="#bfbfbf" points="50.5,-91.75 0,-91.75 0,-72.5 50.5,-72.5 50.5,-91.75"/>
<text xml:space="preserve" text-anchor="middle" x="25.25" y="-78.25" font-family="Helvetica,sans-Serif" font-size="10.00">Material</text>
</a>
</g>
</g>
<!-- Node2&#45;&gt;Node1 -->
<g id="edge1_Node000001_Node000002" class="edge">
<title>Node2&#45;&gt;Node1</title>
<g id="a_edge1_Node000001_Node000002"><a xlink:title=" ">
<path fill="none" stroke="#9a32cd" stroke-dasharray="5,2" d="M33.2,-61.76C36.68,-53.94 41.05,-44.97 45.75,-37.25 49.51,-31.07 54.44,-24.63 58.52,-19.63"/>
<polygon fill="#9a32cd" stroke="#9a32cd" points="30.09,-60.13 29.38,-70.7 36.53,-62.88 30.09,-60.13"/>
</a>
</g>
<text xml:space="preserve" text-anchor="start" x="48.75" y="-42" font-family="Helvetica,sans-Serif" font-size="10.00" fill="grey">material</text>
</g>
<!-- Node3 -->
<g id="Node000003" class="node">
<title>Node3</title>
<g id="a_Node000003"><a xlink:href="class_mesh_renderer.html" target="_top" xlink:title=" ">
<polygon fill="white" stroke="#bfbfbf" points="148.12,-91.75 68.38,-91.75 68.38,-72.5 148.12,-72.5 148.12,-91.75"/>
<text xml:space="preserve" text-anchor="middle" x="108.25" y="-78.25" font-family="Helvetica,sans-Serif" font-size="10.00">MeshRenderer</text>
</a>
</g>
</g>
<!-- Node3&#45;&gt;Node1 -->
<g id="edge2_Node000001_Node000003" class="edge">
<title>Node3&#45;&gt;Node1</title>
<g id="a_edge2_Node000001_Node000003"><a xlink:title=" ">
<path fill="none" stroke="#9a32cd" stroke-dasharray="5,2" d="M99.5,-61.82C95.72,-54.02 91.07,-45.04 86.25,-37.25 82.48,-31.16 77.67,-24.72 73.71,-19.7"/>
<polygon fill="#9a32cd" stroke="#9a32cd" points="96.27,-63.18 103.68,-70.76 102.61,-60.22 96.27,-63.18"/>
</a>
</g>
<text xml:space="preserve" text-anchor="start" x="98.46" y="-42" font-family="Helvetica,sans-Serif" font-size="10.00" fill="grey">mesh_renderer</text>
</g>
</g>
</svg>
